<mxfile host="app.diagrams.net" modified="2023-07-15T12:35:05.672Z" agent="Mozilla/5.0 (Macintosh; Intel Mac OS X 10_15_7) AppleWebKit/537.36 (KHTML, like Gecko) Chrome/114.0.0.0 Safari/537.36" version="21.6.2" etag="TAmiJznvi4C6suBazOkF" type="github">
  <diagram name="Page-1" id="-16SNg3HG6Fn7irzf4NP">
    <mxGraphModel>
      <root>
        <mxCell id="0" />
        <mxCell id="1" parent="0" />
      </root>
    </mxGraphModel>
  </diagram>
</mxfile>
